<?xml version="1.0" encoding="utf-8"?>
<!-- Generator: Adobe Illustrator 19.1.0, SVG Export Plug-In . SVG Version: 6.00 Build 0)  -->
<svg version="1.1" id="Layer_1" xmlns="http://www.w3.org/2000/svg" xmlns:xlink="http://www.w3.org/1999/xlink" x="0px" y="0px"
	 viewBox="0 0 381.4 95" style="enable-background:new 0 0 381.4 95;" xml:space="preserve">
<style type="text/css">
	.st0{fill:#48474B;}
	.st1{fill:#B4DDF1;}
</style>
<path class="st0" d="M366.9,27.1c-19.9,0.1-54.3,22.4-137.3,43.5c-40.2,10.2-156.3,17.8-175.6,19c-2.5,0.2-3.8,1.5-5.1,3.9
	c-0.3,0.6,0.2,1.4,0.5,1.4c3.2,0,0.6,0.1,3.3,0.1L367.9,95c13.6,0.1,13.4,0.1,13.4-3.3V32.6c0-4-0.1-5.5-2.7-5.5L366.9,27.1z"/>
<g>
	<g>
		<path class="st1" d="M60.7,51.5L72,50.7l1.1,14.8c0.9-0.9,1.9-1.7,3-2.3c1.1-0.6,2.3-0.9,3.7-1c3-0.2,5.4,0.5,7.1,2
			c1.7,1.6,2.7,4,2.9,7.2l0.6,8.9l3.7-0.3l0.5,6.6l-11.1,0.8l-1-13.8c-0.1-1.4-0.5-2.5-1.3-3.2c-0.7-0.8-1.7-1.1-2.8-1
			c-0.7,0.1-1.5,0.3-2.3,0.8c-0.8,0.5-1.6,1.1-2.4,1.9l0.7,9.4l3.7-0.3l0.5,6.6L63.5,89L63,82.4l3.9-0.3l-1.8-24.3l-3.9,0.3
			L60.7,51.5z"/>
		<path class="st0" d="M62.7,89.8l-0.6-8.3l3.9-0.3l-1.6-22.6L60.5,59l-0.6-8.3l12.9-0.9l1,13.9c0.6-0.5,1.2-0.9,1.9-1.2
			c1.2-0.6,2.5-1,4-1.1c3.2-0.2,5.8,0.5,7.7,2.2c1.9,1.7,2.9,4.3,3.2,7.7l0.6,8.1l3.7-0.3l0.6,8.3l-12.8,0.9l-1.1-14.7
			c-0.1-1.2-0.4-2.1-1-2.7c-0.6-0.6-1.3-0.8-2.1-0.8c-0.6,0-1.3,0.3-2,0.7c-0.7,0.4-1.3,0.9-2,1.5l0.6,8.2l3.7-0.3l0.6,8.3
			L62.7,89.8z M63.9,83.1l0.4,4.9l13.2-1l-0.4-4.9l-3.7,0.3l-0.8-10.6l0.3-0.3c0.9-0.9,1.7-1.6,2.6-2.1c0.9-0.5,1.8-0.8,2.7-0.9
			c1.3-0.1,2.5,0.3,3.4,1.3c0.9,0.9,1.4,2.2,1.5,3.8l0.9,13l9.5-0.7L93.2,81l-3.7,0.3l-0.7-9.8c-0.2-3-1.1-5.2-2.6-6.6
			c-1.5-1.4-3.7-2-6.4-1.8c-1.2,0.1-2.4,0.4-3.4,0.9c-1,0.5-1.9,1.2-2.7,2.1l-1.3,1.4l-1.2-15.9l-9.6,0.7l0.4,4.9l3.9-0.3l1.9,25.9
			L63.9,83.1z"/>
	</g>
	<g>
		<path class="st1" d="M95.3,61.5l11.2-0.9L108,79l3.5-0.3l0.5,6.6l-14.7,1.2l-0.5-6.6l3.8-0.3l-1-11.7l-3.8,0.3L95.3,61.5z
			 M98,53.2c0-0.6,0-1.2,0.2-1.7c0.2-0.5,0.4-1,0.8-1.4c0.4-0.4,0.8-0.8,1.3-1s1.1-0.4,1.7-0.5c0.6,0,1.1,0,1.7,0.2
			c0.5,0.2,1,0.5,1.4,0.8c0.4,0.4,0.8,0.8,1,1.3c0.3,0.5,0.4,1.1,0.5,1.6c0,0.6,0,1.2-0.2,1.7c-0.2,0.5-0.5,1-0.8,1.4
			c-0.4,0.4-0.8,0.8-1.3,1s-1,0.4-1.6,0.5c-0.6,0-1.2,0-1.7-0.2c-0.5-0.2-1-0.5-1.4-0.8c-0.4-0.4-0.8-0.8-1-1.3
			C98.2,54.4,98.1,53.8,98,53.2z"/>
		<path class="st0" d="M96.6,87.3l-0.7-8.2l3.8-0.3l-0.8-10.1L95.1,69l-0.7-8.2l12.8-1l1.5,18.3l3.5-0.3l0.7,8.2L96.6,87.3z
			 M97.7,80.6l0.4,4.9l13-1.1l-0.4-4.9l-3.5,0.3l-1.5-18.3l-9.5,0.8l0.4,4.9l3.8-0.3l1.1,13.4L97.7,80.6z M102.3,58
			c-0.6,0-1.1-0.1-1.6-0.3c-0.6-0.2-1.2-0.5-1.7-1c-0.5-0.4-0.9-0.9-1.2-1.5c-0.3-0.6-0.5-1.3-0.5-2c-0.1-0.7,0-1.4,0.2-2
			c0.2-0.6,0.5-1.2,0.9-1.7c0.4-0.5,0.9-0.9,1.5-1.2c0.6-0.3,1.3-0.5,2-0.6c0.7-0.1,1.4,0,2,0.2c0.6,0.2,1.2,0.5,1.7,1
			c0.5,0.4,0.9,0.9,1.2,1.5c0.3,0.6,0.5,1.3,0.6,2c0.1,0.7,0,1.4-0.2,2c-0.2,0.6-0.5,1.2-1,1.7c-0.4,0.5-0.9,0.9-1.5,1.2
			c-0.6,0.3-1.2,0.5-1.9,0.6C102.6,58,102.4,58,102.3,58z M102.3,49.4c-0.1,0-0.2,0-0.3,0c-0.5,0-0.9,0.2-1.3,0.4
			c-0.4,0.2-0.8,0.5-1,0.8s-0.5,0.7-0.6,1.2c-0.1,0.4-0.2,0.9-0.2,1.4l0,0c0,0.5,0.2,0.9,0.4,1.3c0.2,0.4,0.5,0.7,0.8,1
			c0.3,0.3,0.7,0.5,1.2,0.6c0.4,0.1,0.9,0.2,1.4,0.2c0.5,0,0.9-0.2,1.3-0.4c0.4-0.2,0.7-0.5,1-0.8c0.3-0.3,0.5-0.7,0.6-1.2
			c0.1-0.4,0.2-0.9,0.2-1.4c0-0.5-0.2-0.9-0.4-1.3c-0.2-0.4-0.5-0.8-0.8-1c-0.3-0.3-0.7-0.5-1.2-0.7C103,49.5,102.7,49.4,102.3,49.4
			z"/>
	</g>
	<g>
		<path class="st1" d="M139.9,64.2c-0.3-0.3-0.7-0.6-1.2-0.8c-0.5-0.2-1.1-0.4-1.8-0.5s-1.5-0.1-2.4,0c-0.3,0-0.7,0.1-1.1,0.2
			c-0.4,0.1-0.7,0.2-1,0.4c-0.3,0.2-0.6,0.4-0.8,0.7c-0.2,0.3-0.3,0.6-0.2,1c0,0.2,0.1,0.4,0.1,0.5c0.1,0.2,0.2,0.3,0.4,0.5
			c0.2,0.1,0.4,0.3,0.7,0.4c0.3,0.1,0.7,0.2,1.1,0.2l4.6,0.5c1.7,0.2,3.1,0.4,4.2,0.8c1.2,0.4,2.1,0.9,2.8,1.4s1.3,1.2,1.7,2
			c0.4,0.8,0.6,1.6,0.7,2.5c0.1,1.4-0.1,2.7-0.6,3.8c-0.6,1.1-1.4,2.1-2.4,2.9c-1,0.8-2.2,1.5-3.5,2c-1.3,0.5-2.7,0.8-4,0.9
			c-0.9,0.1-1.7,0.1-2.5,0.1c-0.7,0-1.4-0.1-2-0.3c-0.6-0.1-1.1-0.3-1.6-0.5c-0.5-0.2-0.9-0.5-1.3-0.8l-4.3,0.4l-0.6-6.7l6.8-0.6
			l0,0.1c0.1,0.5,0.2,0.9,0.5,1.2c0.3,0.3,0.7,0.6,1.2,0.8c0.5,0.2,1,0.3,1.6,0.4c0.6,0.1,1.2,0.1,1.8,0c1.4-0.1,2.5-0.4,3.1-0.9
			c0.6-0.4,0.9-1,0.8-1.5c0-0.5-0.2-0.8-0.6-1.1c-0.4-0.3-0.9-0.5-1.8-0.6l-4.7-0.6c-3-0.3-5.2-1-6.8-2.2c-1.6-1.2-2.5-2.8-2.7-4.8
			c-0.1-1.2,0.1-2.3,0.5-3.4c0.5-1,1.1-2,2-2.7c0.9-0.8,2-1.4,3.2-1.9c1.3-0.5,2.6-0.8,4.1-1c1-0.1,1.9-0.1,2.7-0.1
			c0.8,0,1.5,0.1,2.2,0.3c0.6,0.1,1.2,0.3,1.7,0.5s0.9,0.5,1.3,0.7l4.2-0.4l0.6,6.7l-6.2,0.6C140.3,64.9,140.1,64.6,139.9,64.2z"/>
		<path class="st0" d="M135.4,84.6c-0.3,0-0.6,0-0.8,0c-0.8,0-1.5-0.1-2.2-0.3c-0.7-0.1-1.3-0.3-1.8-0.6c-0.4-0.2-0.8-0.4-1.2-0.7
			l-4.9,0.5l-0.8-8.3l8.5-0.8l0.1,1c0,0.3,0.1,0.5,0.3,0.7c0.2,0.2,0.5,0.4,0.9,0.6c0.4,0.2,0.8,0.3,1.3,0.3c0.5,0.1,1.1,0.1,1.6,0
			c1.6-0.2,2.4-0.5,2.7-0.7c0.5-0.4,0.5-0.7,0.5-0.8c0-0.2-0.1-0.4-0.3-0.6c-0.1-0.1-0.5-0.3-1.4-0.4l-4.7-0.5
			c-3.1-0.3-5.5-1.1-7.2-2.3c-1.8-1.3-2.8-3.1-3-5.4c-0.1-1.3,0.1-2.6,0.6-3.8c0.5-1.1,1.3-2.2,2.3-3c1-0.8,2.1-1.5,3.5-2.1
			c1.3-0.5,2.8-0.9,4.3-1c1-0.1,2-0.1,2.8-0.1c0.8,0,1.6,0.1,2.3,0.3c0.7,0.1,1.3,0.3,1.9,0.6c0.4,0.2,0.8,0.4,1.2,0.6l4.7-0.4
			l0.8,8.3l-7.9,0.7l-0.1-0.8c0-0.2-0.1-0.4-0.3-0.6l0,0c-0.2-0.2-0.5-0.4-0.9-0.6c-0.4-0.2-1-0.3-1.6-0.4c-0.6-0.1-1.4-0.1-2.2,0
			c-0.3,0-0.6,0.1-1,0.2c-0.3,0.1-0.6,0.2-0.8,0.3c-0.2,0.1-0.4,0.3-0.5,0.4c0,0.1-0.1,0.2-0.1,0.4c0,0.1,0,0.2,0.1,0.3
			c0,0,0.1,0.1,0.1,0.2c0.1,0.1,0.2,0.1,0.5,0.2c0.2,0.1,0.5,0.1,0.9,0.2l4.6,0.5c1.7,0.2,3.2,0.5,4.4,0.9c1.2,0.4,2.3,0.9,3.1,1.6
			c0.8,0.7,1.5,1.4,1.9,2.3c0.4,0.8,0.7,1.8,0.8,2.8c0.1,1.6-0.1,3-0.7,4.3c-0.6,1.2-1.5,2.3-2.6,3.2c-1.1,0.9-2.3,1.6-3.7,2.1
			c-1.4,0.5-2.8,0.8-4.3,1C136.6,84.5,136,84.6,135.4,84.6z M129.9,81.3l0.2,0.2c0.4,0.3,0.8,0.5,1.2,0.7c0.4,0.2,0.9,0.4,1.5,0.5
			c0.6,0.1,1.2,0.2,1.9,0.3c0.7,0,1.5,0,2.3-0.1c1.3-0.1,2.6-0.4,3.8-0.9c1.2-0.5,2.3-1.1,3.3-1.8c0.9-0.7,1.6-1.6,2.1-2.6
			c0.5-1,0.7-2.1,0.6-3.4c-0.1-0.8-0.3-1.6-0.6-2.2c-0.3-0.6-0.8-1.2-1.4-1.7c-0.7-0.5-1.5-1-2.6-1.3c-1.1-0.4-2.5-0.6-4-0.8
			l-4.6-0.5c-0.5,0-1-0.1-1.3-0.3c-0.4-0.1-0.7-0.3-0.9-0.5c-0.3-0.2-0.5-0.5-0.6-0.8c-0.1-0.2-0.2-0.5-0.2-0.8
			c-0.1-0.6,0.1-1.1,0.4-1.5c0.3-0.4,0.6-0.7,1-0.9c0.4-0.2,0.8-0.4,1.2-0.5c0.4-0.1,0.8-0.2,1.2-0.2c0.9-0.1,1.8-0.1,2.6,0
			c0.8,0.1,1.5,0.3,2,0.5c0.6,0.3,1.1,0.6,1.5,1l0,0c0.2,0.2,0.3,0.5,0.5,0.7l4.7-0.4l-0.5-5l-3.6,0.3l-0.2-0.2
			c-0.4-0.2-0.8-0.5-1.2-0.7c-0.4-0.2-1-0.4-1.5-0.5c-0.6-0.1-1.3-0.2-2-0.3c-0.8,0-1.6,0-2.6,0.1c-1.4,0.1-2.7,0.4-3.9,0.9
			c-1.2,0.5-2.2,1.1-3,1.8c-0.8,0.7-1.4,1.5-1.8,2.5c-0.4,0.9-0.6,1.9-0.5,2.9c0.2,1.8,0.9,3.2,2.3,4.2c1.5,1.1,3.6,1.8,6.4,2
			l4.7,0.6c1,0.1,1.7,0.4,2.2,0.8c0.5,0.4,0.8,1,0.9,1.7c0.1,0.6-0.1,1.5-1.2,2.3c-0.7,0.5-1.9,0.9-3.5,1c-0.7,0.1-1.3,0.1-2,0
			c-0.7-0.1-1.3-0.2-1.8-0.5c-0.6-0.2-1-0.6-1.4-1c-0.3-0.3-0.5-0.6-0.6-1l-5.2,0.5l0.5,5L129.9,81.3z"/>
	</g>
	<g>
		<path class="st1" d="M167.6,78.6c-0.5,0.4-1,0.8-1.4,1.1c-0.4,0.3-0.9,0.6-1.3,0.8s-0.9,0.4-1.4,0.5c-0.5,0.1-1,0.2-1.6,0.3
			c-1.5,0.2-2.8,0.1-4.1-0.2c-1.2-0.3-2.3-0.7-3.2-1.3c-0.9-0.6-1.6-1.4-2.1-2.3s-0.9-1.9-1-3.1c-0.1-1.2,0-2.2,0.3-3.3
			c0.3-1,0.9-1.9,1.6-2.7c0.8-0.8,1.7-1.4,2.9-2c1.2-0.5,2.5-0.9,4.1-1c1.1-0.1,2.2-0.2,3.1-0.2s1.8,0.1,2.7,0.2l-0.1-0.8
			c-0.1-0.6-0.2-1.2-0.5-1.6c-0.3-0.4-0.7-0.8-1.1-1c-0.5-0.2-1-0.4-1.6-0.5s-1.3-0.1-2,0c-1.5,0.2-2.8,0.5-3.9,0.9
			c-1.1,0.4-2.2,1-3.2,1.6l-2.8-4.4c1.5-1.3,3.1-2.3,4.8-3.1c1.7-0.8,3.6-1.3,5.6-1.5c1.6-0.2,3-0.2,4.4,0c1.4,0.2,2.6,0.6,3.6,1.3
			c1,0.7,1.9,1.6,2.6,2.8c0.7,1.2,1.1,2.7,1.3,4.5l1,9l3.3-0.4l0.7,6.6l-10.4,1.1L167.6,78.6z M161.7,75.4c1.1-0.1,2.1-0.4,3-0.9
			s1.6-1,2.2-1.6l-0.4-3.2l-5.8,0.6c-0.4,0-0.7,0.1-1.1,0.3c-0.3,0.2-0.6,0.3-0.9,0.6c-0.3,0.2-0.5,0.5-0.6,0.8
			c-0.1,0.3-0.2,0.7-0.1,1.1c0.1,0.7,0.4,1.3,1,1.8S160.6,75.6,161.7,75.4z"/>
		<path class="st0" d="M160.2,82.1c-0.9,0-1.8-0.1-2.6-0.3c-1.3-0.3-2.5-0.8-3.5-1.5c-1-0.7-1.8-1.6-2.4-2.6c-0.6-1-1-2.2-1.1-3.4
			c-0.1-1.3,0-2.5,0.3-3.6c0.4-1.1,1-2.2,1.8-3c0.8-0.9,1.9-1.6,3.1-2.2c1.2-0.6,2.7-0.9,4.3-1.1c1.2-0.1,2.2-0.2,3.2-0.2
			c0.6,0,1.2,0,1.7,0.1c-0.1-0.4-0.2-0.7-0.4-1c-0.2-0.3-0.5-0.6-0.8-0.7c-0.4-0.2-0.8-0.3-1.3-0.4c-0.6-0.1-1.2-0.1-1.8,0
			c-1.4,0.2-2.7,0.4-3.7,0.8c-1,0.4-2,0.9-3,1.6l-0.7,0.5l-3.7-5.7l0.5-0.5c1.6-1.3,3.3-2.4,5-3.3c1.8-0.8,3.8-1.4,5.8-1.6
			c1.6-0.2,3.2-0.2,4.6,0c1.5,0.2,2.8,0.7,3.9,1.4c1.1,0.7,2.1,1.8,2.8,3.1c0.7,1.3,1.2,2.9,1.4,4.8l0.9,8.2l3.3-0.4l0.9,8.2
			l-12,1.3l-0.1-0.7c-0.1,0.1-0.2,0.1-0.3,0.2c-0.5,0.3-1,0.6-1.5,0.8c-0.5,0.2-1,0.4-1.5,0.5c-0.5,0.1-1.1,0.2-1.7,0.3
			C161.3,82.1,160.7,82.1,160.2,82.1z M163.1,65.9c-0.8,0-1.7,0.1-2.7,0.2c-1.5,0.2-2.7,0.5-3.8,1c-1.1,0.5-1.9,1.1-2.6,1.8
			c-0.7,0.7-1.1,1.5-1.4,2.4c-0.3,0.9-0.4,1.9-0.3,2.9c0.1,1,0.4,1.9,0.9,2.8c0.5,0.8,1.1,1.5,1.9,2.1c0.8,0.6,1.8,1,2.9,1.2
			c1.1,0.3,2.4,0.3,3.8,0.2c0.6-0.1,1.1-0.2,1.5-0.3c0.4-0.1,0.9-0.3,1.3-0.4c0.4-0.2,0.8-0.4,1.2-0.7c0.4-0.3,0.9-0.6,1.4-1
			l1.2-0.9l0.2,2l8.7-1l-0.5-4.9l-3.3,0.4l-1.1-9.9c-0.2-1.7-0.6-3.1-1.2-4.2c-0.6-1.1-1.4-1.9-2.3-2.5c-0.9-0.6-2-1-3.2-1.2
			c-1.3-0.2-2.7-0.2-4.2,0c-1.9,0.2-3.7,0.7-5.3,1.4c-1.4,0.7-2.8,1.5-4.1,2.5l2,3.1c0.8-0.5,1.7-0.9,2.6-1.3
			c1.2-0.4,2.6-0.8,4.1-0.9c0.8-0.1,1.5-0.1,2.2,0c0.7,0.1,1.4,0.3,1.9,0.6c0.6,0.3,1.1,0.7,1.4,1.3c0.4,0.5,0.6,1.2,0.7,2l0.2,1.8
			l-1-0.1c-0.8-0.1-1.7-0.1-2.6-0.2C163.3,65.9,163.2,65.9,163.1,65.9z M161,76.3c-1,0-1.7-0.2-2.3-0.7c-0.8-0.6-1.2-1.4-1.3-2.3
			c-0.1-0.5,0-1,0.2-1.5c0.2-0.4,0.4-0.8,0.8-1.1c0.3-0.3,0.7-0.5,1.1-0.7c0.4-0.2,0.9-0.3,1.3-0.4l6.6-0.7l0.5,4.4l-0.3,0.3
			c-0.7,0.7-1.5,1.2-2.4,1.8c-1,0.5-2.1,0.8-3.3,1h0C161.5,76.3,161.3,76.3,161,76.3z M165.9,70.7l-4.9,0.5c-0.3,0-0.6,0.1-0.8,0.2
			c-0.3,0.1-0.5,0.3-0.7,0.4c-0.2,0.2-0.3,0.3-0.4,0.6c-0.1,0.2-0.1,0.4-0.1,0.7c0.1,0.5,0.3,0.9,0.7,1.2c0.4,0.3,1.1,0.4,1.9,0.3
			c1-0.1,1.9-0.4,2.7-0.8c0.7-0.4,1.3-0.8,1.7-1.2L165.9,70.7z"/>
	</g>
	<g>
		<path class="st1" d="M190.4,51.9l4.5-0.6l0.8,6.3l-4.5,0.6l1.6,12l4.6-0.6l0.9,6.6L183,78.1l-0.9-6.6l3.7-0.5l-1.6-12l-3.8,0.5
			l-0.8-6.3l3.8-0.5l-0.6-4.1c-0.2-1.5-0.1-2.8,0.2-3.9c0.4-1.2,0.9-2.2,1.7-3.1s1.7-1.6,2.7-2.1c1.1-0.5,2.2-0.9,3.4-1
			c0.9-0.1,1.7-0.2,2.5-0.1c0.7,0,1.4,0.1,2,0.3s1.1,0.3,1.5,0.5s0.7,0.4,1,0.5l-2.1,5.4c-0.4-0.2-0.8-0.4-1.3-0.5
			c-0.5-0.1-1.1-0.1-1.7,0c-0.4,0.1-0.8,0.2-1.2,0.4s-0.7,0.4-0.9,0.8c-0.2,0.3-0.4,0.7-0.5,1.1c-0.1,0.4-0.1,0.9,0,1.5L190.4,51.9z
			"/>
		<path class="st0" d="M182.3,79.1l-1.1-8.2l3.7-0.5L183.5,60l-3.8,0.5l-1.1-7.9l3.8-0.5l-0.4-3.3c-0.2-1.6-0.1-3,0.3-4.3
			c0.4-1.3,1-2.4,1.8-3.4c0.8-0.9,1.8-1.7,3-2.3c1.1-0.6,2.4-1,3.7-1.1c1-0.1,1.8-0.2,2.6-0.1c0.8,0,1.5,0.1,2.1,0.3
			c0.6,0.1,1.2,0.3,1.6,0.5c0.4,0.2,0.8,0.4,1.1,0.6l0.5,0.4l-2.6,6.9l-0.8-0.5c-0.3-0.2-0.7-0.3-1.1-0.4c-0.4-0.1-0.9-0.1-1.5,0
			c-0.3,0-0.6,0.1-0.9,0.3c-0.3,0.1-0.5,0.3-0.6,0.5c-0.2,0.2-0.3,0.5-0.4,0.8c-0.1,0.3-0.1,0.7,0,1.1l0.4,2.7l4.5-0.6l1.1,7.9
			l-4.5,0.6l1.4,10.3l4.6-0.6l1.1,8.2L182.3,79.1z M183,72.3l0.7,4.9l13.7-1.9l-0.7-4.9l-4.6,0.6l-1.8-13.6l4.5-0.6l-0.6-4.6
			l-4.5,0.6l-0.6-4.3c-0.1-0.6-0.1-1.2,0.1-1.8c0.1-0.5,0.4-1,0.7-1.4c0.3-0.4,0.7-0.7,1.2-1c0.4-0.2,0.9-0.4,1.5-0.5
			c0.8-0.1,1.4-0.1,2,0c0.2,0,0.5,0.1,0.7,0.2l1.5-4c-0.1,0-0.2-0.1-0.3-0.2c-0.4-0.2-0.8-0.3-1.3-0.4c-0.5-0.1-1.1-0.2-1.8-0.2
			s-1.5,0-2.3,0.1c-1.1,0.2-2.2,0.5-3.2,1c-1,0.5-1.8,1.1-2.5,1.9c-0.7,0.8-1.2,1.7-1.5,2.8c-0.3,1-0.4,2.3-0.2,3.6l0.7,4.9
			l-3.8,0.5l0.6,4.6l3.8-0.5l1.8,13.6L183,72.3z"/>
	</g>
	<g>
		<path class="st1" d="M207.9,63.5l0.2,0.7c0.3,0.7,0.7,1.2,1.2,1.7c0.5,0.5,1.1,0.8,1.7,1.1c0.6,0.3,1.3,0.4,2.1,0.5
			c0.7,0.1,1.5,0,2.2-0.1c0.7-0.1,1.4-0.3,2-0.5c0.6-0.2,1.2-0.4,1.8-0.7c0.6-0.3,1.1-0.5,1.7-0.9c0.5-0.3,1.1-0.6,1.6-1l3.5,4.4
			c-0.8,0.7-1.5,1.4-2.2,1.9c-0.7,0.5-1.4,1-2.1,1.4c-0.7,0.4-1.5,0.7-2.3,1c-0.8,0.3-1.8,0.5-3,0.7c-2.1,0.4-4.1,0.4-5.9,0
			s-3.4-1.1-4.7-2.1c-1.4-1-2.5-2.2-3.4-3.7c-0.9-1.5-1.5-3.2-1.9-5c-0.3-1.8-0.3-3.6,0-5.3c0.3-1.7,0.9-3.2,1.9-4.6
			c0.9-1.4,2.1-2.6,3.6-3.6c1.5-1,3.1-1.7,5.1-2c1.9-0.4,3.7-0.4,5.3,0c1.6,0.4,3,1,4.3,1.9s2.3,2.1,3.1,3.5s1.5,3,1.8,4.8
			c0.1,0.4,0.2,0.8,0.3,1.2c0.1,0.4,0.1,0.8,0.2,1.2L207.9,63.5z M211.8,53.5c-0.9,0.2-1.6,0.4-2.2,0.7c-0.6,0.3-1.1,0.7-1.4,1.2
			c-0.4,0.5-0.6,0.9-0.8,1.5c-0.2,0.5-0.3,1.1-0.3,1.6l10.3-1.9c-0.2-0.5-0.5-1-0.8-1.4s-0.7-0.8-1.1-1.1c-0.4-0.3-1-0.5-1.6-0.6
			S212.7,53.3,211.8,53.5z"/>
		<path class="st0" d="M213.2,74.8c-1,0-2-0.1-2.9-0.3c-1.9-0.4-3.6-1.2-5-2.2c-1.4-1-2.7-2.4-3.6-4c-0.9-1.6-1.6-3.3-2-5.2
			c-0.4-1.9-0.4-3.8,0-5.6c0.3-1.8,1-3.5,2-4.9c1-1.5,2.2-2.8,3.8-3.8c1.5-1,3.4-1.8,5.4-2.1c2-0.4,3.9-0.4,5.7,0
			c1.7,0.4,3.3,1.1,4.6,2.1c1.3,1,2.4,2.3,3.3,3.8c0.9,1.5,1.5,3.2,1.9,5c0.1,0.3,0.2,0.8,0.3,1.2c0.1,0.4,0.2,0.8,0.2,1.3l0.1,0.8
			L209,64.1c0.2,0.5,0.5,0.8,0.9,1.2c0.4,0.4,1,0.7,1.5,0.9c0.6,0.2,1.2,0.4,1.8,0.4c0.7,0,1.3,0,2-0.1c0.7-0.1,1.3-0.3,1.9-0.5
			c0.6-0.2,1.2-0.4,1.7-0.7c0.6-0.3,1.1-0.5,1.6-0.8c0.5-0.3,1.1-0.6,1.6-0.9l0.6-0.4l4.5,5.5l-0.6,0.5c-0.8,0.7-1.6,1.4-2.3,1.9
			c-0.7,0.6-1.4,1-2.2,1.5c-0.8,0.4-1.6,0.8-2.5,1.1c-0.9,0.3-1.9,0.5-3.1,0.8C215.3,74.7,214.2,74.8,213.2,74.8z M213.7,48
			c-0.8,0-1.7,0.1-2.6,0.3c-1.8,0.3-3.4,1-4.8,1.9c-1.4,0.9-2.5,2-3.3,3.3c-0.9,1.3-1.4,2.8-1.7,4.3c-0.3,1.6-0.3,3.2,0,4.9
			c0.3,1.7,0.9,3.3,1.8,4.7c0.8,1.4,1.9,2.6,3.2,3.5c1.3,0.9,2.7,1.6,4.4,1.9c1.7,0.4,3.5,0.4,5.6,0c1.1-0.2,2.1-0.4,2.8-0.7
			c0.8-0.3,1.5-0.6,2.2-1c0.7-0.4,1.3-0.8,2-1.3c0.5-0.4,1-0.8,1.6-1.3l-2.6-3.2c-0.3,0.2-0.7,0.4-1,0.6c-0.5,0.3-1.1,0.6-1.7,0.9
			c-0.6,0.3-1.2,0.5-1.9,0.7c-0.7,0.2-1.4,0.4-2.1,0.5c-0.8,0.1-1.6,0.2-2.4,0.1c-0.8-0.1-1.6-0.2-2.3-0.5c-0.7-0.3-1.4-0.7-2-1.2
			c-0.6-0.5-1.1-1.2-1.5-2l0-0.1l-0.5-1.6l18.2-3.4c0-0.1,0-0.2-0.1-0.4c-0.1-0.4-0.2-0.7-0.3-1.1c-0.4-1.7-1-3.2-1.8-4.6
			c-0.8-1.3-1.8-2.4-2.9-3.3c-1.1-0.9-2.5-1.5-4-1.8C215.3,48.1,214.5,48,213.7,48z M206.2,59.5l0.1-1.1c0-0.6,0.2-1.2,0.3-1.8
			c0.2-0.6,0.5-1.2,0.9-1.7c0.4-0.5,1-1,1.7-1.4c0.7-0.4,1.5-0.7,2.5-0.8l0,0c0.9-0.2,1.8-0.2,2.5-0.1c0.7,0.1,1.3,0.4,1.9,0.7
			c0.5,0.4,1,0.8,1.3,1.3c0.3,0.5,0.6,1,0.8,1.6l0.4,0.9L206.2,59.5z M212,54.3c-0.8,0.2-1.4,0.4-1.9,0.7c-0.5,0.3-0.9,0.6-1.2,1
			c-0.3,0.4-0.5,0.8-0.6,1.2c0,0.1-0.1,0.2-0.1,0.3l8-1.5c-0.1-0.1-0.1-0.2-0.2-0.3c-0.2-0.3-0.5-0.6-0.9-0.9
			c-0.3-0.2-0.7-0.4-1.2-0.5C213.4,54.1,212.7,54.1,212,54.3L212,54.3z"/>
	</g>
	<g>
		<path class="st1" d="M237,42.3l10.5-3.1l0.1,0.3c0.6-0.5,1.3-1,2-1.4c0.7-0.4,1.5-0.8,2.3-1c1.8-0.5,3.5-0.7,5.2-0.5
			c1.7,0.2,3.3,0.7,4.7,1.5s2.7,1.9,3.8,3.2c1.1,1.3,1.9,2.9,2.4,4.6c0.5,1.7,0.7,3.4,0.5,5.2s-0.6,3.3-1.4,4.7
			c-0.8,1.5-1.8,2.7-3.1,3.8c-1.3,1.1-2.9,1.9-4.7,2.5c-1,0.3-2,0.5-2.9,0.6c-0.9,0.1-1.9,0-2.8-0.1l1.5,5.3l4.6-1.4l1.9,6.3
			L246,77.6l-1.9-6.3l3.9-1.2l-6.5-22.2l-2.6,0.8L237,42.3z M253.3,43.7c-1,0.3-1.8,0.8-2.5,1.6c-0.7,0.8-1.2,1.7-1.5,2.8l2,6.8
			c0.7,0.6,1.6,1.1,2.6,1.3c1,0.2,2,0.2,3.1-0.1c0.8-0.2,1.5-0.6,2.1-1.1c0.6-0.5,1.1-1.1,1.5-1.8c0.4-0.7,0.6-1.5,0.7-2.3
			s0-1.7-0.3-2.6c-0.3-1-0.7-1.8-1.2-2.5c-0.5-0.7-1.1-1.2-1.8-1.6c-0.7-0.4-1.4-0.6-2.2-0.7C254.9,43.3,254.1,43.4,253.3,43.7z"/>
		<path class="st0" d="M245.4,78.6l-2.3-7.9l3.9-1.2l-6.1-20.6l-2.6,0.8l-2.3-7.9l12-3.5c0.4-0.3,0.8-0.6,1.2-0.8
			c0.8-0.5,1.6-0.8,2.5-1.1c1.9-0.5,3.7-0.7,5.5-0.5c1.8,0.2,3.5,0.8,5,1.6c1.5,0.9,2.9,2,4,3.4c1.1,1.4,2,3.1,2.5,4.9
			c0.5,1.8,0.7,3.7,0.6,5.5c-0.2,1.8-0.7,3.5-1.5,5.1c-0.8,1.5-1.9,2.9-3.3,4.1c-1.4,1.2-3.1,2.1-5,2.6c-1.1,0.3-2.1,0.5-3.1,0.6
			c-0.6,0-1.1,0-1.7,0l1,3.3l4.6-1.4l2.3,7.9L245.4,78.6z M245.1,71.8l1.4,4.7l14.1-4.1l-1.4-4.7l-4.6,1.4l-2.1-7.3l1.3,0.2
			c0.9,0.1,1.7,0.1,2.6,0.1c0.9-0.1,1.8-0.2,2.8-0.5c1.7-0.5,3.2-1.3,4.4-2.3c1.2-1,2.2-2.2,2.9-3.6c0.7-1.4,1.1-2.8,1.3-4.4
			c0.1-1.6,0-3.2-0.5-4.8c-0.5-1.6-1.2-3-2.2-4.3c-1-1.3-2.2-2.3-3.5-3c-1.3-0.8-2.8-1.2-4.4-1.4c-1.6-0.2-3.2-0.1-4.9,0.4
			c-0.8,0.2-1.5,0.5-2.1,0.9c-0.7,0.4-1.3,0.9-1.9,1.4l-1,0.8l-0.2-0.8l-8.9,2.6l1.4,4.7l2.6-0.8l7,23.8L245.1,71.8z M255.2,57.1
			c-0.5,0-1-0.1-1.5-0.2c-1.1-0.3-2.1-0.8-2.9-1.5l-0.2-0.2l-2.1-7.2l0.1-0.2c0.3-1.2,0.9-2.3,1.7-3.1c0.8-0.9,1.8-1.5,2.9-1.8
			c0.9-0.3,1.8-0.4,2.7-0.3c0.9,0.1,1.8,0.3,2.5,0.8c0.8,0.4,1.5,1,2.1,1.8c0.6,0.8,1,1.7,1.4,2.8c0.3,1,0.4,2,0.3,2.9
			c-0.1,0.9-0.4,1.8-0.8,2.6c-0.4,0.8-1,1.5-1.7,2.1c-0.7,0.6-1.5,1-2.4,1.3C256.5,57,255.8,57.1,255.2,57.1z M252,54.3
			c0.6,0.5,1.3,0.8,2.1,1c0.9,0.2,1.7,0.2,2.7-0.1c0.7-0.2,1.3-0.5,1.8-1c0.5-0.4,1-1,1.3-1.6c0.3-0.6,0.5-1.3,0.6-2
			c0.1-0.7,0-1.5-0.2-2.3c-0.3-0.9-0.6-1.6-1.1-2.2c-0.5-0.6-1-1.1-1.6-1.4c-0.6-0.3-1.2-0.5-1.9-0.6c-0.7-0.1-1.4,0-2.1,0.2l0,0
			c-0.8,0.2-1.5,0.7-2.1,1.3c-0.6,0.6-1,1.4-1.3,2.2L252,54.3z"/>
	</g>
	<g>
		<path class="st1" d="M289.8,50.6c-0.4,0.5-0.8,1-1.2,1.4c-0.4,0.4-0.7,0.7-1.1,1c-0.4,0.3-0.8,0.6-1.3,0.8c-0.4,0.2-1,0.4-1.5,0.6
			c-1.4,0.5-2.8,0.7-4,0.7c-1.3,0-2.4-0.2-3.4-0.6c-1-0.4-1.9-1-2.6-1.8c-0.7-0.8-1.3-1.7-1.6-2.8c-0.4-1.1-0.5-2.2-0.4-3.3
			c0.1-1.1,0.4-2.1,1-3c0.6-0.9,1.4-1.8,2.4-2.5c1-0.8,2.3-1.4,3.8-1.9c1.1-0.4,2.1-0.6,3-0.8c0.9-0.2,1.8-0.3,2.6-0.4l-0.2-0.7
			c-0.2-0.6-0.5-1.1-0.9-1.4c-0.4-0.4-0.8-0.6-1.3-0.7c-0.5-0.1-1.1-0.2-1.7-0.1c-0.6,0.1-1.3,0.2-2,0.5c-1.4,0.5-2.6,1.1-3.6,1.7
			c-1,0.7-1.9,1.4-2.7,2.3l-3.7-3.7c1.2-1.6,2.5-3,4-4.1c1.5-1.1,3.2-2,5.1-2.7c1.5-0.5,2.9-0.8,4.3-0.9c1.4-0.1,2.6,0.1,3.8,0.5
			c1.1,0.4,2.2,1.2,3.1,2.2c0.9,1,1.7,2.4,2.2,4.1l2.9,8.6l3.2-1.1l2.1,6.3l-9.9,3.4L289.8,50.6z M283.4,48.8c1.1-0.4,2-0.9,2.8-1.5
			c0.8-0.7,1.4-1.3,1.8-2l-1-3l-5.5,1.9c-0.4,0.1-0.7,0.3-1,0.5c-0.3,0.2-0.5,0.5-0.7,0.8c-0.2,0.3-0.3,0.6-0.4,0.9s0,0.7,0.1,1.1
			c0.2,0.7,0.7,1.2,1.4,1.5S282.3,49.2,283.4,48.8z"/>
		<path class="st0" d="M280.8,55.9C280.7,55.9,280.7,55.9,280.8,55.9c-1.4,0-2.7-0.2-3.8-0.7c-1.1-0.5-2.1-1.1-2.9-2
			c-0.8-0.9-1.4-1.9-1.8-3.1c-0.4-1.2-0.6-2.4-0.4-3.6c0.1-1.2,0.5-2.3,1.1-3.4c0.6-1,1.5-2,2.6-2.8c1.1-0.8,2.4-1.5,4-2
			c1.1-0.4,2.2-0.7,3.1-0.9c0.6-0.1,1.1-0.2,1.7-0.3c-0.1-0.4-0.3-0.6-0.6-0.9c-0.3-0.3-0.6-0.4-1-0.6c-0.4-0.1-0.9-0.1-1.4-0.1
			c-0.6,0.1-1.2,0.2-1.8,0.4c-1.4,0.5-2.5,1-3.4,1.6c-0.9,0.6-1.8,1.3-2.6,2.2l-0.6,0.6l-4.8-4.8l0.4-0.6c1.2-1.7,2.7-3.1,4.2-4.3
			c1.6-1.2,3.4-2.1,5.4-2.8c1.5-0.5,3-0.8,4.5-0.9c1.5-0.1,2.9,0.1,4.1,0.6c1.3,0.5,2.4,1.3,3.4,2.4c1,1.1,1.8,2.6,2.4,4.4l2.7,7.8
			l3.2-1.1l2.7,7.8l-11.4,3.9l-0.2-0.7c-0.1,0.1-0.2,0.2-0.2,0.3c-0.4,0.4-0.8,0.8-1.2,1.1c-0.4,0.3-0.9,0.6-1.4,0.9
			c-0.5,0.2-1,0.5-1.6,0.7C283.5,55.7,282.1,55.9,280.8,55.9z M281.9,34c0.5,0,0.9,0.1,1.3,0.2c0.6,0.2,1.2,0.5,1.7,0.9
			c0.5,0.4,0.8,1,1.1,1.8l0.6,1.7l-1,0.1c-0.8,0.1-1.6,0.2-2.6,0.4c-0.9,0.2-1.9,0.5-2.9,0.8c-1.4,0.5-2.6,1.1-3.5,1.8
			c-0.9,0.7-1.7,1.5-2.2,2.3c-0.5,0.8-0.8,1.7-0.9,2.7c-0.1,1,0,1.9,0.4,2.9c0.3,1,0.8,1.8,1.5,2.5c0.6,0.7,1.4,1.2,2.3,1.6
			c0.9,0.4,1.9,0.6,3.1,0.6c1.1,0,2.4-0.2,3.7-0.7c0.5-0.2,1-0.4,1.4-0.6c0.4-0.2,0.8-0.4,1.1-0.7c0.4-0.3,0.7-0.6,1-0.9
			c0.3-0.4,0.7-0.8,1.1-1.3l0.9-1.2l0.7,1.9L299,48l-1.6-4.7l-3.2,1.1l-3.2-9.4c-0.5-1.6-1.2-2.9-2.1-3.8c-0.8-0.9-1.8-1.6-2.8-2
			c-1-0.4-2.2-0.5-3.4-0.4c-1.3,0.1-2.7,0.4-4.1,0.9c-1.8,0.6-3.5,1.5-4.9,2.6c-1.3,1-2.4,2.1-3.4,3.4l2.6,2.6
			c0.7-0.7,1.5-1.3,2.3-1.8c1-0.7,2.3-1.3,3.8-1.8c0.7-0.3,1.5-0.4,2.1-0.5C281.5,34.1,281.7,34,281.9,34z M281.8,50
			c-0.5,0-1-0.1-1.4-0.3c-0.9-0.4-1.5-1.1-1.8-2c-0.2-0.5-0.2-1-0.1-1.5c0.1-0.5,0.3-0.9,0.5-1.3c0.3-0.4,0.6-0.7,0.9-1
			c0.4-0.3,0.8-0.5,1.2-0.6l6.3-2.1l1.4,4.2l-0.2,0.3c-0.5,0.8-1.2,1.5-2,2.2c-0.8,0.7-1.9,1.3-3,1.7l0,0
			C283,49.8,282.4,50,281.8,50z M286.4,43.3l-4.7,1.6c-0.3,0.1-0.5,0.2-0.7,0.4c-0.2,0.2-0.4,0.4-0.6,0.6c-0.1,0.2-0.2,0.4-0.3,0.6
			c0,0.2,0,0.4,0.1,0.7c0.2,0.5,0.5,0.8,0.9,1c0.5,0.2,1.1,0.2,2-0.1l0,0c1-0.3,1.8-0.8,2.5-1.4c0.6-0.5,1.1-1,1.4-1.5L286.4,43.3z"
			/>
	</g>
	<g>
		<path class="st1" d="M304.6,20.2l4.7-1.7l2.2,5.9l-4.7,1.7l3.6,9.9c0.2,0.6,0.4,1,0.6,1.3s0.5,0.6,0.7,0.7
			c0.3,0.1,0.5,0.2,0.8,0.2c0.3,0,0.6-0.1,0.9-0.2c0.6-0.2,1.1-0.5,1.5-0.7c0.4-0.3,0.8-0.6,1.2-0.9l2.6,4c-0.6,0.8-1.3,1.5-2.1,2.1
			c-0.8,0.6-1.9,1.2-3.2,1.7c-0.9,0.3-1.9,0.5-2.8,0.5c-1,0-1.9-0.2-2.7-0.6c-0.9-0.4-1.7-1-2.4-1.9c-0.7-0.8-1.3-1.9-1.8-3.2
			l-3.8-10.4l-3.4,1.2l-2.2-5.9l3.4-1.3l-2-5.6l5.8-5.9L304.6,20.2z"/>
		<path class="st0" d="M310.5,45.6C310.5,45.6,310.4,45.6,310.5,45.6c-1.1,0-2.2-0.2-3.2-0.7c-1-0.5-1.9-1.1-2.7-2.1
			c-0.8-0.9-1.5-2.1-1.9-3.4l-3.5-9.6l-3.4,1.2l-2.8-7.5l3.4-1.3l-1.9-5.3l7.1-7.3l3.4,9.4l4.7-1.7l2.8,7.5l-4.7,1.7l3.3,9.2
			c0.2,0.5,0.4,0.9,0.6,1.2c0.1,0.2,0.3,0.4,0.4,0.5c0.1,0.1,0.2,0.1,0.3,0.1c0.2,0,0.4-0.1,0.6-0.1c0.5-0.2,0.9-0.4,1.3-0.6
			c0.4-0.3,0.7-0.5,1.1-0.8l0.7-0.6l3.4,5.3l-0.4,0.5c-0.6,0.8-1.4,1.6-2.3,2.3c-0.9,0.7-2,1.3-3.4,1.8
			C312.5,45.4,311.5,45.6,310.5,45.6z M300.2,27.7l4.1,11.2c0.4,1.2,1,2.2,1.6,2.9c0.7,0.7,1.4,1.3,2.1,1.7c0.8,0.4,1.6,0.5,2.4,0.5
			c0.9,0,1.7-0.1,2.5-0.4c1.2-0.4,2.2-1,3-1.6c0.6-0.5,1.2-1,1.6-1.5l-1.8-2.7c-0.2,0.1-0.3,0.2-0.5,0.3c-0.5,0.3-1,0.6-1.6,0.8
			c-0.4,0.1-0.8,0.2-1.1,0.2c-0.4,0-0.9-0.1-1.2-0.3c-0.4-0.2-0.7-0.5-1-0.9c-0.3-0.4-0.5-0.9-0.7-1.5l-3.9-10.7l4.7-1.7l-1.6-4.4
			l-4.7,1.7l-3.1-8.5l-4.5,4.6l2.1,5.9l-3.4,1.3l1.6,4.4L300.2,27.7z"/>
	</g>
	<g>
		<path class="st1" d="M308.9,5.1l10.6-3.9l5.1,14c0.6-1.1,1.3-2.1,2.2-3c0.9-0.9,2-1.5,3.3-2c2.8-1,5.3-1,7.3,0
			c2.1,1,3.7,3.1,4.8,6.1l3.1,8.4l3.4-1.3l2.3,6.2l-10.5,3.9l-4.8-13c-0.5-1.3-1.2-2.2-2.1-2.7c-0.9-0.5-1.9-0.6-2.9-0.2
			c-0.7,0.2-1.4,0.7-2,1.4c-0.7,0.7-1.3,1.5-1.8,2.5l3.2,8.8l3.4-1.3l2.3,6.2l-14,5.2l-2.3-6.2l3.6-1.3L314.8,10l-3.6,1.3L308.9,5.1
			z"/>
		<path class="st0" d="M321.4,41.4l-2.9-7.8l3.6-1.3L314.3,11l-3.6,1.3l-2.9-7.8L320,0.1l4.8,13.1c0.4-0.6,0.9-1.2,1.5-1.7
			c1-0.9,2.2-1.7,3.6-2.2c3-1.1,5.7-1.1,8,0c2.3,1.1,4,3.3,5.2,6.6l2.8,7.6l3.4-1.3l2.9,7.8l-12.1,4.4L335,20.7
			c-0.4-1.1-1-1.9-1.7-2.3c-0.7-0.4-1.4-0.4-2.2-0.2c-0.6,0.2-1.1,0.6-1.7,1.2c-0.5,0.5-1,1.2-1.5,2l2.8,7.7l3.4-1.3l2.9,7.8
			L321.4,41.4z M320.6,34.6l1.7,4.6l12.5-4.6l-1.7-4.6l-3.4,1.3l-3.7-10l0.2-0.3c0.6-1.1,1.2-2,2-2.7c0.7-0.8,1.5-1.3,2.3-1.6
			c1.3-0.5,2.5-0.4,3.6,0.3c1.1,0.6,1.9,1.7,2.5,3.2l4.5,12.2l8.9-3.3l-1.7-4.6l-3.4,1.3l-3.4-9.2c-1-2.8-2.5-4.7-4.4-5.6
			c-1.9-0.9-4.1-0.9-6.7,0c-1.2,0.4-2.2,1-3,1.8c-0.8,0.8-1.5,1.7-2.1,2.8l-0.9,1.7L319,2.3l-9,3.3l1.7,4.6l3.6-1.3l9,24.4
			L320.6,34.6z"/>
	</g>
</g>
<g>
	<path class="st0" d="M41.7,0.2c4.7-1,9.3,2.1,10.3,6.8c1,4.7-2.1,9.3-6.8,10.3c-4.7,1-9.3-2.1-10.3-6.8C33.9,5.7,36.9,1.1,41.7,0.2
		z"/>
	<path class="st0" d="M35.8,40.7l8.6-12.9c0.3-0.3,0.5-0.7,0.7-1l0.1-0.1l0,0c0.5-1,0.7-2.2,0.5-3.4c-0.4-1.9-1.8-3.4-3.5-4.1l0,0
		L15.2,10l0,0c-0.7-0.2-1.5-0.2-2.3,0c-1.4,0.3-2.5,1.1-3.3,2.1l0,0l-0.1,0.1c-0.1,0.1-0.1,0.2-0.2,0.3L0.8,25.3l0,0
		c-0.7,1.1-1,2.6-0.7,4c0.6,3,3.5,4.9,6.5,4.3c1.4-0.3,2.6-1.1,3.4-2.2l0,0l0.1-0.1c0,0,0,0,0,0l6.2-9.3l7.4,2.5L11.1,43.1
		L35.8,40.7z"/>
</g>
<g>
	<g>
		<path class="st1" d="M43.1,52.4c-1.5-2-2.8-3.3-4-4.1c-1.2-0.8-2.4-1.4-3.8-1.7c-1.3-0.3-2.7-0.4-4.2-0.4
			c-2.1,0.1-4.1,0.6-5.9,1.7c-1.8,1-3.3,2.4-4.6,4.1c-1.3,1.7-2.2,3.6-2.9,5.8c-0.7,2.2-0.9,4.5-0.8,6.9c0.1,2.5,0.6,4.7,1.4,6.9
			c0.8,2.1,2,4,3.3,5.5c1.4,1.6,3,2.8,4.9,3.6c1.9,0.9,3.9,1.3,6.1,1.2c1.5-0.1,2.9-0.4,4.2-0.9c1.3-0.5,2.5-1.3,3.5-2.1
			c1-0.9,1.9-1.8,2.7-2.9c0.8-1.1,1.4-2.2,1.8-3.4l12.4,2.9c-0.7,2.5-1.7,4.9-3.2,7c-1.4,2.2-3.2,4.1-5.2,5.7c-2.1,1.6-4.4,3-7.1,4
			c-2.6,1-5.5,1.6-8.6,1.7c-2.6,0.1-5.1-0.1-7.5-0.7c-2.4-0.6-4.7-1.5-6.8-2.7c-2.1-1.2-4.1-2.7-5.8-4.4c-1.8-1.8-3.3-3.7-4.6-5.9
			s-2.3-4.5-3.1-7S4.2,68,4.1,65.3c-0.2-4.1,0.4-8,1.7-11.7c1.3-3.7,3.1-6.9,5.5-9.7c2.4-2.8,5.2-5.1,8.5-6.8s6.9-2.6,10.8-2.8
			c3.1-0.1,5.7,0.1,7.9,0.8c2.2,0.7,4.6,2.1,7.2,4.3l8.5-0.4l0.5,12.8L43.1,52.4z"/>
		<path class="st0" d="M32,95c-2.3,0-4.5-0.3-6.6-0.8c-2.5-0.6-4.9-1.6-7-2.8c-2.2-1.2-4.2-2.8-6-4.6c-1.8-1.8-3.4-3.8-4.7-6.1
			c-1.3-2.2-2.4-4.7-3.2-7.2c-0.8-2.6-1.2-5.3-1.4-8.2C2.9,61.1,3.5,57,4.8,53.3c1.3-3.8,3.2-7.1,5.7-10c2.5-2.9,5.4-5.2,8.9-7
			c3.4-1.8,7.2-2.7,11.2-2.9c3.2-0.1,6,0.2,8.2,0.9c2.2,0.7,4.6,2.1,7.2,4.2l9.1-0.4l0.6,14.8l-13.2,0.6L42.3,53
			c-1.4-1.9-2.7-3.2-3.8-3.9c-1.1-0.7-2.2-1.2-3.4-1.5c-1.2-0.3-2.5-0.4-3.9-0.3c-2,0.1-3.8,0.6-5.4,1.5c-1.7,1-3.1,2.2-4.3,3.8
			c-1.2,1.6-2.1,3.4-2.7,5.5c-0.6,2.1-0.9,4.3-0.8,6.6c0.1,2.3,0.6,4.5,1.3,6.6c0.8,2,1.9,3.8,3.2,5.2c1.3,1.5,2.8,2.6,4.5,3.4
			c1.7,0.8,3.6,1.2,5.6,1.1c1.4-0.1,2.7-0.3,3.9-0.8c1.2-0.5,2.3-1.2,3.3-2c1-0.8,1.8-1.7,2.5-2.7c0.7-1,1.3-2.1,1.6-3.1l0.3-0.8
			l14.2,3.3l-0.3,1c-0.7,2.6-1.8,5.1-3.3,7.3c-1.5,2.3-3.3,4.3-5.5,6c-2.1,1.7-4.6,3.1-7.3,4.1c-2.7,1-5.7,1.6-8.9,1.8
			C32.8,95,32.4,95,32,95z M32.1,35.3c-0.5,0-0.9,0-1.4,0c-3.7,0.2-7.2,1.1-10.4,2.7c-3.2,1.6-6,3.8-8.2,6.5
			c-2.3,2.7-4.1,5.9-5.3,9.4c-1.2,3.5-1.8,7.3-1.6,11.3c0.1,2.7,0.5,5.2,1.3,7.7c0.7,2.4,1.7,4.7,3,6.8c1.2,2.1,2.7,4,4.4,5.7
			c1.7,1.7,3.6,3.1,5.6,4.3c2,1.2,4.2,2,6.5,2.6c2.3,0.6,4.7,0.8,7.2,0.7c3-0.1,5.7-0.7,8.3-1.6c2.5-1,4.8-2.2,6.8-3.8
			c2-1.6,3.7-3.4,5-5.5c1.2-1.8,2.1-3.7,2.7-5.8l-10.5-2.5c-0.4,0.9-0.9,1.9-1.6,2.8c-0.8,1.1-1.8,2.2-2.9,3.1
			c-1.1,0.9-2.4,1.7-3.7,2.3c-1.4,0.6-2.9,0.9-4.6,1c-2.3,0.1-4.5-0.3-6.5-1.3c-2-0.9-3.7-2.2-5.2-3.9c-1.5-1.6-2.6-3.6-3.5-5.8
			c-0.9-2.2-1.4-4.6-1.5-7.2c-0.1-2.5,0.2-5,0.9-7.3c0.7-2.3,1.7-4.4,3-6.1c1.3-1.8,3-3.3,4.9-4.3c1.9-1.1,4-1.7,6.3-1.8
			c1.5-0.1,3,0.1,4.4,0.4c1.4,0.3,2.8,0.9,4.1,1.8c1.2,0.8,2.5,2.1,3.9,3.9l10.2-0.4l-0.5-10.8l-7.9,0.3l-0.3-0.2
			c-2.5-2.1-4.9-3.5-6.9-4.1C36.5,35.6,34.5,35.3,32.1,35.3z"/>
	</g>
</g>
</svg>
