<?xml version="1.0" encoding="utf-8"?>
<!-- Generator: Adobe Illustrator 19.1.0, SVG Export Plug-In . SVG Version: 6.00 Build 0)  -->
<svg version="1.1" id="Layer_1" xmlns="http://www.w3.org/2000/svg" xmlns:xlink="http://www.w3.org/1999/xlink" x="0px" y="0px"
	 viewBox="0 0 309.6 78.3" style="enable-background:new 0 0 309.6 78.3;" xml:space="preserve">
<style type="text/css">
	.st0{fill:#48474B;}
	.st1{fill:#B4DDF1;stroke:#48484B;stroke-width:2;stroke-miterlimit:10;}
	.st2{fill:#B4DDF1;stroke:#48484B;stroke-width:1.5;stroke-miterlimit:10;}
</style>
<path class="st0" d="M39.1,78.3c2.6,0,264.2,0,270.5,0.1c0,0,0-42.2,0-50.8C309.5,27.6,38.8,78.3,39.1,78.3z"/>
<g>
	<path class="st0" d="M34.3,0.1c3.9-0.8,7.7,1.7,8.5,5.6c0.8,3.9-1.7,7.7-5.6,8.5c-3.9,0.8-7.7-1.7-8.5-5.6
		C27.9,4.7,30.4,0.9,34.3,0.1z"/>
	<path class="st0" d="M29.5,33.5l7.1-10.6c0.2-0.3,0.4-0.6,0.6-0.9l0.1-0.1l0,0c0.4-0.9,0.6-1.8,0.4-2.8c-0.3-1.6-1.5-2.8-2.9-3.3
		l0,0L12.5,8.3l0,0c-0.6-0.1-1.2-0.2-1.9,0C9.5,8.5,8.5,9.1,7.9,10l0,0l0,0.1c-0.1,0.1-0.1,0.2-0.2,0.3l-7,10.5l0,0
		c-0.6,0.9-0.8,2.1-0.6,3.3c0.5,2.4,2.9,4,5.3,3.5c1.2-0.2,2.2-0.9,2.8-1.8l0,0l0.1-0.1c0,0,0,0,0,0l5.1-7.6l6.1,2L9.2,35.5
		L29.5,33.5z"/>
</g>
<path class="st1" d="M35.5,43.2c-1.2-1.6-2.3-2.8-3.3-3.4c-1-0.7-2-1.1-3.1-1.4c-1.1-0.3-2.2-0.4-3.4-0.3c-1.7,0.1-3.4,0.5-4.8,1.4
	c-1.5,0.8-2.7,2-3.8,3.4c-1,1.4-1.8,3-2.4,4.8c-0.5,1.8-0.8,3.7-0.7,5.7c0.1,2,0.5,3.9,1.2,5.7c0.7,1.8,1.6,3.3,2.7,4.6
	c1.1,1.3,2.5,2.3,4,3c1.5,0.7,3.2,1,5,1c1.2-0.1,2.4-0.3,3.5-0.8c1.1-0.5,2-1,2.9-1.7c0.9-0.7,1.6-1.5,2.2-2.4
	c0.6-0.9,1.1-1.8,1.4-2.8l10.2,2.4c-0.6,2.1-1.4,4-2.6,5.8c-1.2,1.8-2.6,3.4-4.3,4.7c-1.7,1.3-3.6,2.4-5.8,3.3
	c-2.2,0.8-4.5,1.3-7.1,1.4c-2.1,0.1-4.2-0.1-6.2-0.6c-2-0.5-3.8-1.2-5.6-2.2c-1.7-1-3.3-2.2-4.8-3.6C9.3,69.5,8,67.9,7,66.1
	c-1.1-1.8-1.9-3.7-2.5-5.8s-1-4.2-1.1-6.5c-0.1-3.4,0.3-6.6,1.4-9.6c1.1-3,2.6-5.7,4.5-8c2-2.3,4.3-4.2,7-5.6
	c2.7-1.4,5.7-2.2,8.9-2.3c2.6-0.1,4.7,0.1,6.5,0.7c1.8,0.6,3.8,1.7,5.9,3.5l7-0.3l0.5,10.6L35.5,43.2z"/>
<path class="st2" d="M52.4,43.4l9.4-1.8l2.3,12.4c0.7-0.9,1.4-1.6,2.3-2.2c0.9-0.6,1.9-1,3-1.2c2.5-0.5,4.6-0.1,6.1,1
	c1.6,1.2,2.6,3.1,3.1,5.8l1.4,7.5l3.1-0.6l1,5.5l-9.3,1.8l-2.2-11.6c-0.2-1.2-0.7-2-1.4-2.6c-0.7-0.6-1.5-0.8-2.4-0.6
	c-0.6,0.1-1.2,0.4-1.9,0.9c-0.6,0.5-1.3,1.1-1.9,1.9l1.5,7.9l3.1-0.6l1,5.5l-12.5,2.3l-1-5.5l3.2-0.6l-3.8-20.3L53.4,49L52.4,43.4z"
	/>
<path class="st2" d="M82.7,48.6l9.4-1.8l2.9,15.4l2.9-0.5l1,5.5l-12.2,2.3l-1-5.5l3.1-0.6l-1.8-9.8l-3.1,0.6L82.7,48.6z M84.3,41.3
	c-0.1-0.5-0.1-1,0-1.5s0.3-0.9,0.5-1.3c0.3-0.4,0.6-0.7,1-1c0.4-0.3,0.9-0.5,1.4-0.5c0.5-0.1,1-0.1,1.4,0c0.5,0.1,0.9,0.3,1.3,0.6
	c0.4,0.3,0.7,0.6,1,1c0.3,0.4,0.5,0.9,0.5,1.3s0.1,1,0,1.5c-0.1,0.5-0.3,0.9-0.6,1.3s-0.6,0.7-1,1c-0.4,0.3-0.8,0.4-1.3,0.5
	c-0.5,0.1-1,0.1-1.5,0s-0.9-0.3-1.3-0.6c-0.4-0.3-0.7-0.6-1-1C84.5,42.3,84.3,41.8,84.3,41.3z"/>
<path class="st2" d="M120.8,47.1c-0.3-0.3-0.6-0.5-1.1-0.6c-0.4-0.1-1-0.2-1.6-0.3c-0.6,0-1.3,0-2,0.2c-0.3,0.1-0.6,0.1-0.9,0.2
	s-0.6,0.2-0.8,0.4c-0.3,0.2-0.4,0.4-0.6,0.6c-0.1,0.2-0.2,0.5-0.1,0.8c0,0.2,0.1,0.3,0.2,0.5c0.1,0.1,0.2,0.3,0.4,0.4
	c0.2,0.1,0.4,0.2,0.6,0.3c0.3,0.1,0.6,0.1,1,0.1l3.9,0c1.4,0,2.6,0.1,3.6,0.4s1.8,0.6,2.5,1s1.2,1,1.6,1.6c0.4,0.6,0.6,1.3,0.8,2.1
	c0.2,1.2,0.1,2.3-0.2,3.3c-0.4,1-1,1.9-1.8,2.7c-0.8,0.8-1.7,1.4-2.8,1.9c-1.1,0.5-2.2,0.9-3.3,1.1c-0.8,0.1-1.4,0.2-2.1,0.2
	c-0.6,0-1.2,0-1.7-0.1c-0.5-0.1-1-0.2-1.4-0.3c-0.4-0.2-0.8-0.3-1.2-0.5l-3.6,0.7l-1.1-5.6l5.7-1.1l0,0.1c0.1,0.4,0.3,0.7,0.6,1
	s0.6,0.4,1,0.6c0.4,0.1,0.9,0.2,1.3,0.2c0.5,0,1,0,1.5-0.1c1.2-0.2,2.1-0.5,2.5-1c0.5-0.4,0.7-0.9,0.6-1.4c-0.1-0.4-0.3-0.7-0.6-0.9
	c-0.3-0.2-0.8-0.4-1.6-0.4l-4-0.1c-2.5,0-4.5-0.5-5.9-1.3s-2.3-2.2-2.6-3.9c-0.2-1-0.1-2,0.2-2.9c0.3-0.9,0.8-1.7,1.5-2.5
	s1.6-1.4,2.6-1.9s2.1-0.9,3.4-1.1c0.8-0.2,1.6-0.2,2.3-0.3s1.3,0,1.8,0.1c0.6,0.1,1,0.2,1.5,0.3c0.4,0.1,0.8,0.3,1.2,0.5l3.5-0.7
	l1.1,5.6l-5.2,1C121.3,47.6,121.1,47.3,120.8,47.1z"/>
<path class="st2" d="M145.5,57.2c-0.4,0.4-0.8,0.7-1.1,1c-0.3,0.3-0.7,0.5-1.1,0.7c-0.4,0.2-0.8,0.4-1.2,0.5
	c-0.4,0.1-0.9,0.3-1.4,0.3c-1.2,0.2-2.4,0.3-3.4,0.1c-1-0.2-2-0.5-2.8-0.9c-0.8-0.5-1.4-1.1-2-1.8s-0.9-1.6-1-2.5
	c-0.2-1-0.2-1.9,0-2.8s0.6-1.7,1.2-2.4c0.6-0.7,1.4-1.3,2.3-1.9s2.1-0.9,3.4-1.1c1-0.2,1.8-0.3,2.6-0.3c0.8,0,1.6-0.1,2.3,0
	l-0.1-0.6c-0.1-0.5-0.3-1-0.6-1.3c-0.3-0.3-0.6-0.6-1-0.8s-0.9-0.3-1.4-0.3c-0.5,0-1.1,0-1.7,0.1c-1.3,0.2-2.3,0.6-3.3,1
	s-1.8,1-2.6,1.6l-2.7-3.5c1.2-1.2,2.5-2.2,3.9-3c1.4-0.8,2.9-1.3,4.6-1.6c1.3-0.2,2.5-0.3,3.7-0.2s2.2,0.4,3.1,0.9
	c0.9,0.5,1.7,1.2,2.3,2.2c0.6,1,1.1,2.2,1.4,3.7l1.4,7.6l2.8-0.5l1,5.5l-8.7,1.6L145.5,57.2z M140.4,55c1-0.2,1.8-0.5,2.5-1
	s1.3-1,1.8-1.5l-0.5-2.7l-4.8,0.9c-0.3,0.1-0.6,0.2-0.9,0.3s-0.5,0.3-0.7,0.6s-0.3,0.5-0.4,0.8c-0.1,0.3-0.1,0.6,0,0.9
	c0.1,0.6,0.4,1.1,1,1.4C138.7,55.1,139.4,55.2,140.4,55z"/>
<path class="st2" d="M163.8,33.4l3.8-0.7l1,5.3l-3.8,0.7l1.9,10.1l3.8-0.7l1,5.5l-12.9,2.4l-1-5.5l3.1-0.6l-1.9-10.1l-3.2,0.6
	l-1-5.3l3.2-0.6l-0.7-3.5c-0.2-1.2-0.2-2.3,0-3.3c0.3-1,0.7-1.9,1.3-2.7c0.6-0.8,1.3-1.4,2.2-1.9c0.9-0.5,1.8-0.8,2.9-1
	c0.8-0.1,1.5-0.2,2.1-0.2c0.6,0,1.2,0,1.7,0.1c0.5,0.1,0.9,0.2,1.3,0.3c0.4,0.1,0.6,0.3,0.9,0.4l-1.5,4.7c-0.4-0.2-0.7-0.3-1.1-0.3
	c-0.4-0.1-0.9,0-1.5,0.1c-0.4,0.1-0.7,0.2-1,0.4c-0.3,0.2-0.5,0.4-0.7,0.7c-0.2,0.3-0.3,0.6-0.4,1c-0.1,0.4-0.1,0.8,0,1.2
	L163.8,33.4z"/>
<path class="st2" d="M178.6,42.7l0.2,0.6c0.3,0.6,0.6,1.1,1.1,1.5c0.4,0.4,0.9,0.7,1.5,0.9c0.5,0.2,1.1,0.3,1.7,0.4s1.2,0,1.8-0.1
	c0.6-0.1,1.2-0.3,1.7-0.4s1-0.4,1.5-0.6c0.5-0.2,1-0.5,1.4-0.7s0.9-0.5,1.4-0.8l3,3.7c-0.7,0.6-1.3,1.1-1.9,1.6
	c-0.6,0.4-1.2,0.8-1.8,1.2s-1.3,0.6-2,0.9c-0.7,0.2-1.5,0.4-2.5,0.6c-1.8,0.3-3.5,0.3-5,0c-1.5-0.3-2.9-0.9-4-1.8
	c-1.2-0.8-2.1-1.9-2.9-3.2c-0.8-1.3-1.3-2.7-1.6-4.2c-0.3-1.5-0.3-3,0-4.5s0.8-2.8,1.6-3.9c0.8-1.2,1.8-2.2,3-3
	c1.2-0.8,2.7-1.4,4.3-1.7c1.6-0.3,3.1-0.3,4.5,0c1.4,0.3,2.6,0.9,3.6,1.7c1.1,0.8,1.9,1.8,2.6,3c0.7,1.2,1.2,2.6,1.6,4
	c0.1,0.3,0.2,0.7,0.3,1c0.1,0.3,0.1,0.7,0.2,1L178.6,42.7z M182,34.2c-0.8,0.1-1.4,0.4-1.9,0.6c-0.5,0.3-0.9,0.6-1.2,1
	c-0.3,0.4-0.5,0.8-0.7,1.2S178,38,178,38.5l8.7-1.6c-0.2-0.4-0.4-0.8-0.6-1.2c-0.2-0.4-0.6-0.7-0.9-0.9c-0.4-0.3-0.8-0.4-1.3-0.5
	C183.3,34.1,182.7,34.1,182,34.2z"/>
<path class="st2" d="M203.9,25.8l9.1-1.7l0.1,0.3c0.6-0.4,1.2-0.8,1.8-1c0.6-0.3,1.3-0.5,2-0.6c1.5-0.3,3-0.3,4.4,0.1
	c1.4,0.3,2.7,0.9,3.9,1.7c1.2,0.8,2.1,1.8,2.9,3.1s1.3,2.6,1.6,4.1c0.3,1.5,0.3,3,0,4.4s-0.8,2.7-1.6,3.9c-0.8,1.2-1.8,2.2-3,3
	c-1.2,0.8-2.6,1.4-4.2,1.7c-0.9,0.2-1.7,0.2-2.5,0.2s-1.6-0.1-2.3-0.3l0.9,4.6l4-0.7l1,5.5l-13.6,2.6l-1-5.5l3.4-0.6l-3.6-19.3
	l-2.3,0.4L203.9,25.8z M217.5,28.4c-0.8,0.2-1.6,0.5-2.2,1.1s-1.2,1.3-1.5,2.2l1.1,5.9c0.6,0.6,1.2,1.1,2.1,1.3
	c0.8,0.3,1.7,0.4,2.6,0.2c0.7-0.1,1.3-0.4,1.9-0.8s1-0.8,1.4-1.4s0.6-1.2,0.8-1.9c0.1-0.7,0.1-1.4,0-2.2c-0.2-0.8-0.4-1.6-0.8-2.2
	c-0.4-0.6-0.9-1.1-1.4-1.5s-1.1-0.6-1.8-0.8C218.9,28.3,218.2,28.3,217.5,28.4z"/>
<path class="st2" d="M247.1,38.2c-0.4,0.4-0.8,0.7-1.1,1c-0.3,0.3-0.7,0.5-1.1,0.7c-0.4,0.2-0.8,0.4-1.2,0.5
	c-0.4,0.1-0.9,0.3-1.4,0.3c-1.2,0.2-2.4,0.3-3.4,0.1c-1-0.2-2-0.5-2.8-0.9c-0.8-0.5-1.4-1.1-2-1.8s-0.9-1.6-1-2.5
	c-0.2-1-0.2-1.9,0-2.8c0.2-0.9,0.6-1.7,1.2-2.4c0.6-0.7,1.4-1.3,2.3-1.9c1-0.5,2.1-0.9,3.4-1.1c1-0.2,1.8-0.3,2.6-0.3s1.6-0.1,2.3,0
	l-0.1-0.6c-0.1-0.5-0.3-1-0.6-1.3s-0.6-0.6-1-0.8c-0.4-0.2-0.9-0.3-1.4-0.3c-0.5,0-1.1,0-1.7,0.1c-1.3,0.2-2.3,0.6-3.3,1
	s-1.8,1-2.6,1.6l-2.7-3.5c1.2-1.2,2.5-2.2,3.9-3c1.4-0.8,2.9-1.3,4.6-1.6c1.3-0.2,2.5-0.3,3.7-0.2c1.2,0.1,2.2,0.4,3.1,0.9
	c0.9,0.5,1.7,1.2,2.3,2.2c0.6,1,1.1,2.2,1.4,3.7l1.4,7.6l2.8-0.5l1,5.5l-8.7,1.6L247.1,38.2z M242,35.9c1-0.2,1.8-0.5,2.5-1
	s1.3-1,1.8-1.5l-0.5-2.7l-4.8,0.9c-0.3,0.1-0.6,0.2-0.9,0.3s-0.5,0.3-0.7,0.6c-0.2,0.2-0.3,0.5-0.4,0.8c-0.1,0.3-0.1,0.6,0,0.9
	c0.1,0.6,0.4,1.1,1,1.4S241.1,36.1,242,35.9z"/>
<path class="st2" d="M263.9,14.6l4.2-0.8l1,5.3l-4.2,0.8l1.6,8.8c0.1,0.5,0.2,0.9,0.4,1.2c0.1,0.3,0.3,0.5,0.5,0.7s0.4,0.3,0.6,0.3
	c0.2,0,0.5,0,0.8,0c0.5-0.1,0.9-0.2,1.3-0.4s0.7-0.4,1.1-0.6l1.6,3.7c-0.6,0.6-1.3,1-2.1,1.5c-0.8,0.4-1.8,0.7-2.9,0.9
	c-0.8,0.2-1.6,0.2-2.4,0c-0.8-0.1-1.5-0.4-2.2-0.9c-0.7-0.5-1.3-1.1-1.8-1.9c-0.5-0.8-0.8-1.8-1-2.9l-1.7-9.3l-3,0.6l-1-5.3l3-0.6
	l-0.9-5l5.7-4.2L263.9,14.6z"/>
<path class="st2" d="M269.7,2.6l9.4-1.8l2.3,12.4c0.7-0.9,1.4-1.6,2.3-2.2c0.9-0.6,1.9-1,3-1.2c2.5-0.5,4.6-0.1,6.1,1
	c1.6,1.2,2.6,3.1,3.1,5.8l1.4,7.5l3.1-0.6l1,5.5l-9.3,1.7L290,19.3c-0.2-1.2-0.7-2-1.4-2.6c-0.7-0.6-1.5-0.8-2.4-0.6
	c-0.6,0.1-1.2,0.4-1.9,0.9c-0.6,0.5-1.3,1.1-1.9,1.9l1.5,7.9l3.1-0.6l1,5.5L275.5,34l-1-5.5l3.2-0.6l-3.8-20.3l-3.2,0.6L269.7,2.6z"
	/>
</svg>
