<?xml version="1.0" encoding="utf-8"?>
<!-- Generator: Adobe Illustrator 19.1.0, SVG Export Plug-In . SVG Version: 6.00 Build 0)  -->
<svg version="1.1" id="Layer_1" xmlns="http://www.w3.org/2000/svg" xmlns:xlink="http://www.w3.org/1999/xlink" x="0px" y="0px"
	 viewBox="-175 376.9 260 41.1" style="enable-background:new -175 376.9 260 41.1;" xml:space="preserve">
<style type="text/css">
	.st0{fill:#47474A;}
	.st1{fill:#B4DDF1;stroke:#47474A;stroke-miterlimit:10;}
</style>
<path id="XMLID_3_" class="st0" d="M-17.6,418h98.9c2.1,0,3.7-0.9,3.7-2.1v-25.1c0-2.2-2.8-2.8-5.9-2.9c-5.6-0.1-8,0.8-10.6,2.4
	c-16.8,10.9-44.5,16.6-86.7,19H-72c-42-2.4-69.7-8.1-86.6-19c-2.6-1.6-5.1-2.5-10.6-2.4c-3,0.1-5.8,0.8-5.8,2.9v25.1
	c0,1.1,1.6,2.1,3.7,2.1h98.9H-17.6z"/>
<g>
	<path id="XMLID_27_" class="st1" d="M-129.8,386.1l-2.2,6l-3.3-1.2c-0.2-1.9-1.1-3.2-2.7-3.7c-1-0.4-2-0.3-2.8,0.1
		c-0.9,0.5-1.5,1.3-1.9,2.4c-0.5,1.4-0.6,2.5-0.1,3.4c0.4,0.9,1.1,1.5,2,1.9c0.7,0.3,1.5,0.3,2.4,0.1c0.8-0.2,1.6-0.6,2.2-1.1
		l3.1,2.9c-2.4,2.5-5.3,3.1-8.7,1.8c-2.6-0.9-4.3-2.4-5.4-4.3c-1-1.9-1.1-4.1-0.2-6.4c0.9-2.3,2.3-3.9,4.2-4.7c2-0.8,4-0.8,5.9-0.1
		c1.6,0.6,2.9,1.6,3.9,3.1l0.4-1.4L-129.8,386.1z"/>
	<path id="XMLID_25_" class="st1" d="M-130.9,401.8l0.7-3.5l2.5,0.5l3-14.9l-2.5-0.5l0.7-3.5l7.3,1.5l-1.6,7.9
		c1.8-0.8,3.3-1,4.7-0.7c3.1,0.6,4.3,2.8,3.6,6.6l-1.3,6.5l2.2,0.4l-0.7,3.5l-7.1-1.4l2-9.8c0.1-0.7,0.1-1.2-0.1-1.6
		c-0.2-0.3-0.6-0.5-1.1-0.6c-0.7-0.1-1.7,0-2.8,0.4l-1.4,7.2l2.2,0.4l-0.7,3.5L-130.9,401.8z"/>
	<path id="XMLID_22_" class="st1" d="M-107.6,393.9l0.5-3.6l7.3,1l-1.6,11.9l2.3,0.3l-0.5,3.6l-9.6-1.3l0.5-3.6l2.3,0.3l1.1-8.3
		L-107.6,393.9z M-104.4,386.2c0.1-0.7,0.4-1.3,1-1.8s1.3-0.6,2-0.5c0.8,0,1.4,0.4,1.8,1c0.5,0.6,0.6,1.3,0.5,2s-0.4,1.3-1,1.8
		s-1.3,0.6-2,0.5c-0.7-0.1-1.3-0.4-1.8-1C-104.3,387.6-104.5,386.9-104.4,386.2z"/>
	<path id="XMLID_20_" class="st1" d="M-88.1,408.2l0.4-5.4l3.6,0.3c0,0.7,0.3,1.3,0.9,1.8s1.4,0.8,2.3,0.8c0.8,0.1,1.5,0,1.9-0.3
		c0.5-0.2,0.7-0.6,0.8-1c0-0.4-0.2-0.7-0.6-1s-1.2-0.5-2.4-0.8c-2.5-0.6-4.3-1.4-5.3-2.3s-1.5-2.1-1.4-3.4s0.7-2.3,1.8-3.1
		c1.1-0.8,2.5-1.1,4.3-1c1.4,0.1,2.7,0.5,3.9,1.1v-0.5l3.6,0.3l-0.3,4.5l-3.6-0.3c-0.2-1.1-1.3-1.7-3.3-1.9c-1.4-0.1-2.2,0.2-2.2,1
		c0,0.3,0.1,0.5,0.4,0.7c0.3,0.2,1,0.4,2.2,0.7c1.9,0.5,3.3,0.9,4.2,1.3c0.9,0.4,1.7,1,2.2,1.8c0.5,0.8,0.7,1.7,0.7,2.8
		c-0.1,1.5-0.8,2.7-1.9,3.6c-1.2,0.9-2.7,1.3-4.7,1.1c-1.9-0.1-3.1-0.6-3.7-1.4l-0.1,0.8L-88.1,408.2z"/>
	<path id="XMLID_17_" class="st1" d="M-53.6,405.7v3.6h-7.5v-1.2c-1.3,1-2.8,1.5-4.3,1.5s-2.9-0.4-4-1.3s-1.7-2.1-1.7-3.5
		c0-1.5,0.6-2.7,1.8-3.8c1.2-1.1,2.7-1.5,4.6-1.5c1,0,2.2,0.3,3.6,0.8v-1c0-0.8-0.3-1.4-0.8-2s-1.3-0.8-2.2-0.8
		c-1.1,0-2.1,0.4-2.9,1.2l-4-0.7c1.2-2.5,3.7-3.7,7.6-3.7c1.5,0,2.8,0.2,3.7,0.5c1,0.3,1.7,0.8,2.2,1.3s0.8,1.1,1,1.8
		c0.2,0.6,0.3,1.7,0.3,3.1v5.7C-56.2,405.7-53.6,405.7-53.6,405.7z M-61.1,403.6c-1.2-0.8-2.2-1.1-2.9-1.1c-0.6,0-1.1,0.2-1.6,0.5
		c-0.5,0.3-0.7,0.8-0.7,1.5c0,0.6,0.2,1.1,0.6,1.5s0.9,0.6,1.5,0.6c0.9,0,2-0.5,3.1-1.6V403.6z"/>
	<path id="XMLID_15_" class="st1" d="M-42.4,405.7v3.6h-9.7v-3.6h2.3v-8.4h-2.1v-3.6h2.1v-1.4c0-1.6,0.5-3,1.5-4.1s2.5-1.7,4.5-1.7
		c2.4,0,4.2,0.7,5.2,2.2l-3.6,2.8c-0.3-1.1-0.8-1.7-1.4-1.7c-0.9,0-1.3,0.7-1.3,2.2v1.7h2.4v3.6h-2.4v8.4
		C-44.9,405.7-42.4,405.7-42.4,405.7z"/>
	<path id="XMLID_12_" class="st1" d="M-27.7,404.6l3.9,1.2c-1.6,2.5-4.2,3.8-7.6,3.8c-2.8,0-4.9-0.7-6.4-2.2s-2.3-3.4-2.3-5.7
		c0-2.4,0.8-4.4,2.4-6c1.6-1.6,3.6-2.4,6.1-2.4c1.8,0,3.3,0.5,4.6,1.4c1.3,0.9,2.2,2,2.7,3.4c0.5,1.4,0.8,2.8,0.8,4.5h-11.6
		c0.1,1.4,0.5,2.4,1.3,3c0.8,0.6,1.7,0.9,2.6,0.9C-30.1,406.5-28.9,405.9-27.7,404.6z M-28.6,399.8c-0.1-0.9-0.5-1.6-1-2.2
		c-0.6-0.6-1.3-0.9-2.3-0.9c-1.8,0-2.9,1-3.2,3.1H-28.6z"/>
	<path id="XMLID_9_" class="st1" d="M-1.7,411.6l0.3,3.6l-10.7,0.9l-0.3-3.6l2.6-0.2l-1.3-15.4l-2.2,0.2l-0.3-3.6l7.1-0.6l0.2,2
		c1.3-1.6,2.7-2.4,4.4-2.6c2.1-0.2,3.7,0.5,5.1,2s2.1,3.4,2.3,5.6c0.2,2.3-0.3,4.3-1.3,5.9s-2.7,2.5-4.7,2.7
		c-1.7,0.1-3.2-0.4-4.7-1.6l0.4,5L-1.7,411.6z M0.4,400.2c-0.1-1.4-0.5-2.4-1.1-3c-0.6-0.6-1.4-0.9-2.3-0.8
		c-0.9,0.1-1.7,0.5-2.2,1.2c-0.5,0.7-0.7,1.8-0.6,3.2c0.1,1.2,0.5,2.2,1.1,2.9c0.6,0.7,1.4,1,2.4,0.9c0.9-0.1,1.6-0.5,2.1-1.2
		C0.3,402.7,0.5,401.6,0.4,400.2z"/>
	<path id="XMLID_6_" class="st1" d="M26.2,401.2l0.5,3.6l-7.4,1l-0.2-1.2c-1.2,1.1-2.5,1.8-4,2c-1.5,0.2-2.9,0-4.1-0.8
		c-1.2-0.7-2-1.8-2.2-3.3s0.2-2.8,1.2-4c1-1.2,2.5-1.9,4.3-2.1c1-0.1,2.3-0.1,3.7,0.3l-0.1-0.9c-0.1-0.8-0.5-1.4-1.1-1.8
		s-1.4-0.6-2.2-0.5c-1.1,0.2-2,0.7-2.7,1.6l-4.1-0.2c0.8-2.6,3.1-4.2,7-4.7c1.5-0.2,2.7-0.2,3.8,0c1,0.2,1.8,0.5,2.4,1s1,1,1.3,1.6
		s0.5,1.6,0.7,3l0.8,5.6L26.2,401.2z M18.4,400.1c-1.3-0.6-2.3-0.8-3-0.7c-0.6,0.1-1.1,0.3-1.5,0.7c-0.4,0.4-0.6,0.9-0.5,1.5
		c0.1,0.6,0.3,1,0.8,1.4c0.4,0.4,0.9,0.5,1.5,0.4c0.9-0.1,1.9-0.8,2.9-2L18.4,400.1z"/>
	<path id="XMLID_4_" class="st1" d="M26.2,392.5l-0.7-3.5l1.9-0.4l-0.5-2.4l4.1-4.5l1.2,5.9L35,387l0.7,3.5l-2.8,0.6l1.4,6.6
		c0.1,0.6,0.3,1,0.5,1.2s0.6,0.2,1.1,0.1s0.9-0.3,1.5-0.6l0.7,3.4c-1.1,0.8-2.3,1.3-3.5,1.5c-2.7,0.6-4.3-0.5-4.8-3.1l-1.7-8
		L26.2,392.5z"/>
	<path id="XMLID_1_" class="st1" d="M41.8,401.7l-1.2-3.4l2.4-0.8l-4.9-14.4l-2.3,0.8l-1.2-3.4l7.1-2.4l2.6,7.6
		c1.1-1.5,2.4-2.5,3.7-3c3-1,5.1,0.3,6.4,3.9l2.1,6.3l2.2-0.7l1.2,3.4l-6.9,2.3l-3.2-9.5c-0.2-0.7-0.5-1.1-0.9-1.3
		c-0.4-0.2-0.8-0.2-1.3,0c-0.7,0.2-1.4,0.8-2.2,1.8l2.4,7l2.1-0.7l1.2,3.4L41.8,401.7z"/>
</g>
</svg>
